PathFileType	4	(x/y/z)	S08_M20_T01
DataRate	CameraRate	NumFrames	NumMarkers	Units	OrigDataRate	OrigDataStartFrame	OrigNumFrames
240	240	10	51	mm	240	253	504
Frame#	Time	Sternum			R.Acromium			L.Acromium			Top.Head			R.ASIS			L.ASIS			R.PSIS			L.PSIS			R.Great.Tro			L.Great.Tro			R.Iliac.Crest			L.Iliac.Crest			V.Sacral			R.Thigh.Upper.Post			R.Thigh.Lower.Ant			R.Thigh.Lower.Post			R.Thigh.Upper.Ant			R.Knee.Lat			R.Knee.Med			R.Shank.Upper.Post			R.Shank.Lower.Ant			R.Shank.Lower.Post			R.Shank.Upper.Ant			R.Ankle.Lat			R.Ankle.Med			R.Heel.Upper			R.Heel.Med			R.Heel.Lat			R.Toe.Lat			R.Toe.Med			R.Toe.Tip			L.Thigh.Upper.Post			L.Thigh.Lower.Ant			L.Thigh.Lower.Post			L.Thigh.Upper.Ant			L.Knee.Lat			L.Knee.Med			L.Shank.Upper.Post			L.Shank.Lower.Ant			L.Shank.Lower.Post			L.Shank.Upper.Ant			L.Ankle.Lat			L.Ankle.Med			L.Heel.Upper			L.Heel.Med			L.Heel.Lat			L.Toe.Lat			L.Toe.Med			L.Toe.Tip			Cervical.Spine			Back			
		X1	Y1	Z1	X2	Y2	Z2	X3	Y3	Z3	X4	Y4	Z4	X5	Y5	Z5	X6	Y6	Z6	X7	Y7	Z7	X8	Y8	Z8	X9	Y9	Z9	X10	Y10	Z10	X11	Y11	Z11	X12	Y12	Z12	X13	Y13	Z13	X14	Y14	Z14	X15	Y15	Z15	X16	Y16	Z16	X17	Y17	Z17	X18	Y18	Z18	X19	Y19	Z19	X20	Y20	Z20	X21	Y21	Z21	X22	Y22	Z22	X23	Y23	Z23	X24	Y24	Z24	X25	Y25	Z25	X26	Y26	Z26	X27	Y27	Z27	X28	Y28	Z28	X29	Y29	Z29	X30	Y30	Z30	X31	Y31	Z31	X32	Y32	Z32	X33	Y33	Z33	X34	Y34	Z34	X35	Y35	Z35	X36	Y36	Z36	X37	Y37	Z37	X38	Y38	Z38	X39	Y39	Z39	X40	Y40	Z40	X41	Y41	Z41	X42	Y42	Z42	X43	Y43	Z43	X44	Y44	Z44	X45	Y45	Z45	X46	Y46	Z46	X47	Y47	Z47	X48	Y48	Z48	X49	Y49	Z49	X50	Y50	Z50	X51	Y51	Z51	

253	1.05	-189.7	1233	301.99	-294.38	1466.4	483.55	-325.62	1495.1	149.13	-287.99	1787.2	333.76	-205.01	1022.9	424.85	-201.25	1018.4	192.43	-405.91	1041.9	343.47	-400.66	1042.1	250.02	-276.57	912.81	493.43	-278.58	908.82	123.65	-302.23	1090.9	465.88	-298.66	1095.8	157.36	-419.31	1000.6	296.49	-313.47	713.4	471.1	-245.66	611.17	429.66	-314.18	624.78	448.69	-236.11	702.79	455.3	-290.18	516.57	418.54	-322.96	527.33	295.06	-376.52	338.32	419.17	-323.44	272.47	390.05	-385.67	262.88	405.84	-313.71	348.38	404.79	-407.16	99.814	357.79	-379.52	116.71	280.15	-456.63	67.088	307.01	-444.31	40.841	280.66	-452.53	43.581	341.83	NaN	NaN	NaN	-257.78	42.882	271.46	-193.26	58.348	320.57	-191.16	710.24	131.35	-72.261	670.04	147.8	-134.65	639.48	145.32	-124.94	740.49	128.46	-84.947	563.19	160.4	-71.876	556.34	287.41	-205.57	438.49	154.27	-188.77	328.73	167.09	-244.24	374.72	165.86	-155.2	396.7	155.79	-310.57	217.59	169.84	-284.94	206.76	253.43	-370.17	217.11	221.62	-374.75	180.34	250.44	-378.78	191.45	186.25	-233.94	96.598	145.91	-211.17	85.437	257.97	-148.5	74.005	207.29	-375.28	1525.5	315.91	-424.01	1242.3	325.45
254	1.0542	-184.78	1232.5	302.14	-289.21	1466	483.53	-320.41	1494.7	149.1	-282.73	1786.8	333.54	-200.63	1022.4	425.12	-196.29	1018.2	192.68	-401.26	1041.7	343.15	-395.84	1041.9	249.73	-272.72	912.45	493.38	-273.32	908.76	123.57	-297.8	1090.5	465.85	-293.48	1095.6	157.32	-414.59	1000.4	296.14	-310.74	713.37	471.03	-243.47	610.72	429.68	-311.91	624.72	448.61	-233.43	702.3	455.38	-288.44	516.31	418.55	-321.05	527.23	295.01	-375.41	338.4	419.16	-322.59	272.42	390.01	-384.84	262.99	405.8	-312.59	348.25	404.71	-407.01	100.08	357.68	-379.2	116.82	279.99	-456.6	67.219	306.92	-444.22	40.854	280.64	-452.46	43.73	341.77	NaN	NaN	NaN	-257.69	42.768	271.38	-193.08	58.047	320.57	-184.73	710.64	131.45	-65.621	671.23	148.24	-127.77	640.26	145.59	-118.7	741.32	128.74	-77.433	564.13	160.85	-64.824	557.53	287.77	-195.75	436.76	154.26	-176.81	327.37	167.39	-233.09	372.33	165.86	-144.57	395.99	156.08	-296.34	213.65	169.77	-270.6	203.5	253.51	-356.16	211.69	221.31	-359.9	174.87	250.21	-363.98	185.75	185.98	-216.58	94.573	146.32	-193.9	84.171	258.49	-130.78	74.245	208.03	-370.03	1525.3	315.88	-419.1	1242.1	325.42
255	1.0583	-179.87	1232	302.27	-284.05	1465.7	483.5	-315.19	1494.4	149.07	-277.47	1786.5	333.32	-196.23	1021.9	425.38	-191.33	1017.9	192.9	-396.6	1041.4	342.85	-391.02	1041.6	249.45	-268.84	912.06	493.32	-268.07	908.67	123.48	-293.34	1090.1	465.83	-288.31	1095.3	157.28	-409.86	1000.1	295.8	-307.96	713.31	470.95	-241.23	610.27	429.68	-309.59	624.66	448.52	-230.73	701.8	455.42	-286.66	516.04	418.54	-319.11	527.12	294.95	-374.26	338.47	419.15	-321.72	272.36	389.95	-383.99	263.11	405.75	-311.45	348.1	404.61	-406.84	100.35	357.55	-378.87	116.92	279.83	-456.57	67.358	306.84	-444.13	40.862	280.63	-452.39	43.882	341.71	NaN	NaN	NaN	-257.57	42.657	271.31	-192.9	57.747	320.58	-178.39	710.97	131.56	-59.088	672.32	148.67	-121.01	640.95	145.87	-112.54	742.07	129.02	-70.036	564.99	161.3	-57.891	558.62	288.14	-185.95	434.97	154.26	-164.86	325.99	167.71	-221.94	369.89	165.87	-133.97	395.23	156.38	-282.03	209.71	169.7	-256.18	200.23	253.61	-342.02	206.25	221.02	-344.9	169.4	250.01	-349.04	180.05	185.74	-199.19	92.605	146.77	-176.61	82.978	259.06	-113.1	74.563	208.81	-364.77	1525	315.84	-414.19	1241.9	325.39
256	1.0625	-174.95	1231.5	302.39	-278.88	1465.3	483.46	-309.98	1494	149.04	-272.21	1786.1	333.09	-191.81	1021.4	425.62	-186.37	1017.6	193.12	-391.92	1041.1	342.55	-386.19	1041.4	249.18	-264.91	911.64	493.26	-262.84	908.55	123.39	-288.87	1089.7	465.8	-283.17	1095.1	157.24	-405.11	999.87	295.46	-305.13	713.24	470.87	-238.94	609.8	429.65	-307.22	624.58	448.42	-227.98	701.29	455.43	-284.84	515.77	418.52	-317.14	527	294.88	-373.09	338.55	419.13	-320.83	272.29	389.88	-383.12	263.23	405.7	-310.28	347.95	404.49	-406.66	100.61	357.41	-378.54	117.03	279.67	-456.54	67.504	306.75	-444.03	40.866	280.62	-452.32	44.037	341.64	NaN	NaN	NaN	-257.44	42.548	271.24	-192.72	57.449	320.6	-172.14	711.24	131.68	-52.659	673.32	149.11	-114.37	641.57	146.16	-106.46	742.72	129.3	-62.759	565.76	161.75	-51.077	559.62	288.51	-176.19	433.1	154.26	-152.91	324.58	168.03	-210.78	367.39	165.9	-123.42	394.43	156.69	-267.65	205.76	169.65	-241.7	196.96	253.73	-327.75	200.79	220.75	-329.76	163.93	249.84	-333.97	174.36	185.54	-181.78	90.702	147.26	-159.31	81.867	259.66	-95.444	74.969	209.62	-359.51	1524.7	315.8	-409.27	1241.7	325.37
257	1.0667	-170.03	1230.9	302.49	-273.71	1464.9	483.42	-304.76	1493.6	149.01	-266.94	1785.7	332.86	-187.36	1020.9	425.85	-181.4	1017.3	193.31	-387.22	1040.8	342.27	-381.35	1041.1	248.92	-260.93	911.21	493.2	-257.63	908.39	123.3	-284.36	1089.3	465.77	-278.05	1094.8	157.2	-400.36	999.58	295.15	-302.25	713.15	470.78	-236.6	609.32	429.61	-304.8	624.48	448.32	-225.19	700.77	455.41	-282.97	515.48	418.5	-315.15	526.88	294.8	-371.9	338.63	419.11	-319.93	272.2	389.79	-382.23	263.36	405.64	-309.09	347.79	404.36	-406.46	100.87	357.27	-378.21	117.14	279.52	-456.52	67.655	306.66	-443.93	40.868	280.61	-452.24	44.194	341.58	NaN	NaN	NaN	-257.28	42.444	271.18	-192.55	57.155	320.61	-165.97	711.45	131.81	-46.335	674.21	149.55	-107.85	642.09	146.45	-100.46	743.29	129.59	-55.602	566.45	162.2	-44.38	560.53	288.89	-166.47	431.16	154.28	-140.99	323.15	168.37	-199.63	364.85	165.93	-112.92	393.6	157.01	-253.19	201.83	169.62	-227.16	193.69	253.86	-313.36	195.34	220.51	-314.48	158.49	249.7	-318.77	168.69	185.37	-164.34	88.876	147.78	-142.01	80.846	260.29	-77.83	75.471	210.46	-354.24	1524.3	315.75	-404.35	1241.4	325.34
258	1.0708	-165.11	1230.3	302.59	-268.54	1464.5	483.37	-299.55	1493.1	148.97	-261.67	1785.3	332.63	-182.9	1020.3	426.05	-176.43	1016.9	193.48	-382.52	1040.4	342	-376.5	1040.8	248.68	-256.91	910.75	493.14	-252.43	908.2	123.2	-279.84	1088.8	465.74	-272.95	1094.5	157.16	-395.6	999.27	294.85	-299.31	713.05	470.68	-234.21	608.84	429.55	-302.33	624.38	448.21	-222.36	700.24	455.36	-281.06	515.19	418.46	-313.13	526.75	294.72	-370.68	338.71	419.08	-319.01	272.11	389.69	-381.32	263.48	405.59	-307.87	347.61	404.22	-406.25	101.13	357.12	-377.89	117.25	279.36	-456.5	67.81	306.56	-443.83	40.869	280.6	-452.17	44.353	341.51	NaN	NaN	NaN	-257.11	42.346	271.14	-192.38	56.865	320.63	-159.89	711.59	131.95	-40.112	675.01	149.99	-101.44	642.52	146.74	-94.534	743.78	129.87	-48.567	567.04	162.65	-37.802	561.33	289.27	-156.78	429.17	154.31	-129.08	321.71	168.73	-188.49	362.25	165.98	-102.47	392.73	157.34	-238.65	197.91	169.61	-212.56	190.44	254.02	-298.85	189.89	220.29	-299.07	153.07	249.6	-303.43	163.04	185.23	-146.88	87.137	148.33	-124.7	79.922	260.94	-60.258	76.077	211.32	-348.97	1524	315.7	-399.43	1241.1	325.31
259	1.075	-160.19	1229.7	302.67	-263.36	1464.1	483.31	-294.33	1492.7	148.93	-256.39	1784.8	332.39	-178.4	1019.7	426.23	-171.45	1016.5	193.64	-377.79	1040.1	341.73	-371.65	1040.4	248.45	-252.84	910.28	493.08	-247.25	907.97	123.11	-275.28	1088.3	465.72	-267.86	1094.2	157.11	-390.82	998.94	294.56	-296.32	712.92	470.58	-231.77	608.35	429.47	-299.8	624.26	448.09	-219.48	699.7	455.29	-279.1	514.88	418.42	-311.08	526.61	294.64	-369.44	338.79	419.06	-318.07	272	389.58	-380.39	263.61	405.55	-306.64	347.43	404.08	-406.03	101.39	356.97	-377.57	117.36	279.2	-456.47	67.967	306.46	-443.73	40.872	280.58	-452.09	44.515	341.45	NaN	NaN	NaN	-256.91	42.252	271.1	-192.21	56.581	320.65	-153.9	711.66	132.09	-33.99	675.69	150.43	-95.146	642.87	147.03	-88.69	744.17	130.15	-41.655	567.54	163.11	-31.342	562.02	289.65	-147.14	427.11	154.36	-117.21	320.26	169.09	-177.38	359.61	166.05	-92.091	391.84	157.68	-224.05	194.01	169.62	-197.91	187.21	254.19	-284.23	184.45	220.1	-283.53	147.7	249.52	-287.98	157.42	185.14	-129.42	85.494	148.9	-107.4	79.103	261.6	-42.733	76.796	212.2	-343.7	1523.6	315.64	-394.5	1240.8	325.27
260	1.0792	-155.26	1229.1	302.73	-258.17	1463.6	483.24	-289.12	1492.3	148.88	-251.11	1784.4	332.16	-173.88	1019.1	426.39	-166.48	1016.1	193.78	-373.05	1039.7	341.48	-366.78	1040.1	248.23	-248.72	909.77	493.01	-242.07	907.71	123	-270.7	1087.8	465.69	-262.8	1093.8	157.07	-386.04	998.59	294.29	-293.28	712.77	470.48	-229.27	607.84	429.38	-297.22	624.12	447.98	-216.55	699.15	455.2	-277.1	514.57	418.38	-309	526.47	294.55	-368.18	338.88	419.03	-317.12	271.88	389.46	-379.45	263.75	405.5	-305.38	347.24	403.93	-405.79	101.64	356.81	-377.26	117.47	279.05	-456.44	68.124	306.36	-443.63	40.878	280.56	-452.02	44.678	341.38	NaN	NaN	NaN	-256.71	42.163	271.08	-192.04	56.301	320.68	-147.99	711.66	132.24	-27.967	676.27	150.87	-88.969	643.12	147.33	-82.921	744.46	130.43	-34.867	567.94	163.56	-25.002	562.61	290.04	-137.55	425	154.42	-105.36	318.81	169.46	-166.28	356.92	166.14	-81.775	390.91	158.04	-209.39	190.14	169.65	-183.21	184.02	254.39	-269.5	179.05	219.94	-267.87	142.37	249.48	-272.42	151.85	185.09	-111.95	83.957	149.49	-90.102	78.395	262.28	-25.261	77.637	213.07	-338.42	1523.2	315.58	-389.57	1240.5	325.24
261	1.0833	-150.33	1228.5	302.78	-252.97	1463.1	483.17	-283.9	1491.8	148.83	-245.82	1783.8	331.92	-169.34	1018.5	426.53	-161.49	1015.7	193.89	-368.3	1039.3	341.24	-361.91	1039.7	248.02	-244.56	909.25	492.95	-236.92	907.42	122.9	-266.1	1087.3	465.66	-257.76	1093.4	157.02	-381.24	998.22	294.04	-290.18	712.6	470.38	-226.72	607.33	429.27	-294.59	623.97	447.87	-213.57	698.59	455.09	-275.06	514.24	418.33	-306.88	526.32	294.47	-366.9	338.96	419	-316.16	271.76	389.34	-378.48	263.88	405.46	-304.1	347.04	403.78	-405.55	101.9	356.66	-376.95	117.59	278.9	-456.4	68.281	306.26	-443.52	40.889	280.54	-451.94	44.844	341.3	NaN	NaN	NaN	-256.49	42.078	271.06	-191.89	56.027	320.7	-142.16	711.58	132.39	-22.042	676.74	151.3	-82.904	643.28	147.62	-77.226	744.67	130.71	-28.204	568.25	164.01	-18.782	563.09	290.42	-128.02	422.82	154.51	-93.558	317.36	169.83	-155.22	354.2	166.24	-71.53	389.96	158.39	-194.68	186.3	169.72	-168.47	180.86	254.61	-254.66	173.67	219.81	-252.09	137.09	249.48	-256.75	146.33	185.09	-94.484	82.538	150.1	-72.81	77.806	262.96	-7.8464	78.606	213.94	-333.14	1522.7	315.51	-384.63	1240.2	325.21
262	1.0875	-145.39	1227.8	302.81	-247.77	1462.6	483.09	-278.68	1491.3	148.77	-240.52	1783.3	331.68	-164.76	1017.8	426.65	-156.5	1015.2	193.99	-363.53	1038.8	341.01	-357.02	1039.3	247.82	-240.35	908.71	492.9	-231.77	907.09	122.79	-261.46	1086.8	465.63	-252.73	1093	156.98	-376.43	997.84	293.8	-287.02	712.42	470.28	-224.12	606.8	429.15	-291.9	623.81	447.75	-210.53	698.02	454.97	-272.97	513.91	418.29	-304.74	526.17	294.39	-365.59	339.05	418.98	-315.18	271.62	389.2	-377.51	264.02	405.42	-302.8	346.83	403.63	-405.3	102.15	356.51	-376.65	117.71	278.76	-456.35	68.436	306.16	-443.42	40.905	280.51	-451.86	45.012	341.23	NaN	NaN	NaN	-256.27	41.994	271.05	-191.74	55.759	320.73	-136.42	711.44	132.53	-16.213	677.1	151.73	-76.949	643.36	147.91	-71.602	744.78	130.98	-21.668	568.46	164.45	-12.681	563.45	290.8	-118.54	420.6	154.62	-81.798	315.92	170.22	-144.19	351.45	166.37	-61.361	388.99	158.76	-179.91	182.52	169.81	-153.69	177.76	254.85	-239.74	168.34	219.72	-236.2	131.88	249.51	-240.97	140.86	185.14	-77.034	81.247	150.71	-55.529	77.343	263.65	9.5033	79.711	214.8	-327.86	1522.3	315.44	-379.68	1239.8	325.18
